<svg width="18" height="18" viewBox="0 0 18 18" fill="none" xmlns="http://www.w3.org/2000/svg">
<path d="M3.75208 9.70312C4.62708 10.5781 5.68958 11.0156 6.93958 11.0156C8.18958 11.0156 9.25208 10.5781 10.1271 9.70312C11.0021 8.82812 11.4396 7.76562 11.4396 6.51562C11.4396 5.26562 11.0021 4.20313 10.1271 3.32812C9.25208 2.45312 8.18958 2.01562 6.93958 2.01562C5.68958 2.01562 4.62708 2.45312 3.75208 3.32812C2.87708 4.20313 2.43958 5.26562 2.43958 6.51562C2.43958 7.76562 2.87708 8.82812 3.75208 9.70312ZM12.9396 11.0156L17.9083 15.9844L16.4083 17.4844L11.4396 12.5156V11.7188L11.1583 11.4375C9.97083 12.4688 8.56458 12.9844 6.93958 12.9844C5.12708 12.9844 3.5802 12.3594 2.29895 11.1094C1.04895 9.85938 0.42395 8.32812 0.42395 6.51562C0.42395 4.70312 1.04895 3.17188 2.29895 1.92188C3.5802 0.640625 5.12708 0 6.93958 0C8.75208 0 10.2833 0.640625 11.5333 1.92188C12.7833 3.17188 13.4083 4.70312 13.4083 6.51562C13.4083 7.17188 13.2521 7.92188 12.9396 8.76562C12.6271 9.57812 12.2677 10.2344 11.8615 10.7344L12.1427 11.0156H12.9396Z" fill="#0B3B60"/>
</svg>
